<svg id="Layer_1" data-name="Layer 1" xmlns="http://www.w3.org/2000/svg" viewBox="0 0 512 335.45"><defs><style>.cls-1{fill:#ff4b55;}.cls-2{fill:#41479b;}.cls-3{fill:#f5f5f5;}</style></defs><title>taiwan</title><path class="cls-1" d="M503.17,335.45H8.83A8.83,8.83,0,0,1,0,326.62V8.83A8.83,8.83,0,0,1,8.83,0H503.17A8.83,8.83,0,0,1,512,8.83V326.62A8.83,8.83,0,0,1,503.17,335.45Z"/><path class="cls-2" d="M8.83,0H247.17A8.83,8.83,0,0,1,256,8.83V158.9a8.83,8.83,0,0,1-8.83,8.83H8.83A8.83,8.83,0,0,1,0,158.9V8.83A8.83,8.83,0,0,1,8.83,0Z"/><path class="cls-3" d="M96.4,83.86a31.51,31.51,0,0,1,9.25-22.33L79.18,54a1.53,1.53,0,0,0-1.49,2.58L97.5,75.69,70.76,82.37a1.54,1.54,0,0,0,0,3L97.5,92,77.69,111.19a1.54,1.54,0,0,0,1.49,2.58l26.47-7.57A31.53,31.53,0,0,1,96.4,83.86Z"/><path class="cls-3" d="M105.67,61.51a31.6,31.6,0,0,1,44.66,0L157.91,35a1.54,1.54,0,0,0-2.58-1.49L136.17,53.36l-6.68-26.73a1.54,1.54,0,0,0-3,0l-6.68,26.73L100.67,33.55A1.54,1.54,0,0,0,98.09,35Z"/><path class="cls-3" d="M150.34,106.21a31.59,31.59,0,0,1-44.67,0l-7.58,26.48a1.54,1.54,0,0,0,2.58,1.49l19.16-19.81,6.68,26.73a1.54,1.54,0,0,0,3,0l6.68-26.73,19.16,19.81a1.54,1.54,0,0,0,2.58-1.49Z"/><path class="cls-3" d="M185.24,82.37,158.5,75.69l19.81-19.16A1.54,1.54,0,0,0,176.82,54l-26.47,7.58a31.59,31.59,0,0,1,0,44.67l26.47,7.57a1.54,1.54,0,0,0,1.49-2.58L158.5,92l26.74-6.68A1.54,1.54,0,0,0,185.24,82.37Z"/><circle class="cls-3" cx="128" cy="83.87" r="25.16"/></svg>